<svg width="24" height="24" viewBox="0 0 24 24" fill="none" xmlns="http://www.w3.org/2000/svg">
<path fill-rule="evenodd" clip-rule="evenodd" d="M14.7128 3.92876L15.6294 2.27372C15.6803 2.1846 15.6485 2.07002 15.5594 2.02546C15.5339 2.01273 15.5021 2 15.4703 2C15.4066 2 15.343 2.03183 15.3111 2.09548L14.3818 3.76963C13.6243 3.43225 12.7713 3.24128 11.8737 3.24128C10.9762 3.24128 10.1232 3.43225 9.3657 3.76963L8.44269 2.09548C8.39177 2.00637 8.28355 1.97454 8.19443 2.02546C8.10532 2.07639 8.07349 2.1846 8.12441 2.27372L9.04105 3.92876C7.27143 4.84541 6.08107 6.5832 6.08107 8.58199H17.6664C17.6664 6.5832 16.476 4.84541 14.7128 3.92876ZM9.20019 6.46226C8.93284 6.46226 8.71641 6.24583 8.71641 5.97848C8.71641 5.71112 8.93284 5.49469 9.20019 5.49469C9.46755 5.49469 9.68398 5.71112 9.68398 5.97848C9.68398 6.24583 9.46755 6.46226 9.20019 6.46226ZM14.5473 6.46226C14.2799 6.46226 14.0635 6.24583 14.0635 5.97848C14.0635 5.71112 14.2799 5.49469 14.5473 5.49469C14.8146 5.49469 15.0311 5.71112 15.0311 5.97848C15.0311 6.24583 14.8146 6.46226 14.5473 6.46226ZM4.29858 8.81757C5.01152 8.81757 5.59715 9.4032 5.59715 10.1161V15.5269C5.59715 16.2398 5.01152 16.8255 4.29858 16.8255C3.58563 16.8255 3 16.2398 3 15.5269V10.1161C3 9.4032 3.58563 8.81757 4.29858 8.81757ZM19.4487 8.81757C20.1617 8.81757 20.7473 9.4032 20.7473 10.1161V15.5269C20.7473 16.2398 20.1617 16.8255 19.4487 16.8255C18.7358 16.8255 18.1501 16.2398 18.1501 15.5269V10.1161C18.1501 9.4032 18.7358 8.81757 19.4487 8.81757ZM6.08107 17.4365V9.04036H17.6664V17.4365C17.6664 18.2131 17.0426 18.837 16.266 18.837H15.3366V21.7015C15.3366 22.4144 14.751 23 14.038 23C13.3251 23 12.7394 22.4144 12.7394 21.7015V18.837H11.008V21.7015C11.008 22.4144 10.4224 23 9.70944 23C8.9965 23 8.41086 22.4144 8.41086 21.7015V18.837H7.48149C6.70489 18.837 6.08107 18.2131 6.08107 17.4365Z" fill="#76787B"/>
</svg>
