<svg width="36" height="21" viewBox="0 0 36 21" fill="none" xmlns="http://www.w3.org/2000/svg">
<path d="M26.2846 15.1543C25.9881 15.1544 25.6982 15.0665 25.4516 14.9018C25.2051 14.7372 25.0129 14.5031 24.8994 14.2291C24.7858 13.9552 24.7561 13.6538 24.8139 13.363C24.8717 13.0721 25.0144 12.805 25.224 12.5953C25.4337 12.3856 25.7008 12.2428 25.9916 12.1849C26.2824 12.127 26.5838 12.1566 26.8578 12.27C27.1317 12.3834 27.3659 12.5755 27.5307 12.822C27.6955 13.0685 27.7834 13.3584 27.7835 13.6549C27.783 14.0523 27.625 14.4334 27.344 14.7145C27.063 14.9956 26.682 15.1537 26.2846 15.1543ZM9.71541 15.1543C9.4189 15.1544 9.12903 15.0665 8.88246 14.9018C8.63589 14.7372 8.4437 14.5031 8.33018 14.2291C8.21665 13.9552 8.18691 13.6538 8.2447 13.363C8.30249 13.0721 8.44522 12.805 8.65485 12.5953C8.86447 12.3856 9.13157 12.2428 9.42237 12.1849C9.71317 12.127 10.0146 12.1566 10.2886 12.27C10.5625 12.3834 10.7967 12.5755 10.9615 12.822C11.1263 13.0685 11.2142 13.3584 11.2143 13.6549C11.2139 14.0524 11.0559 14.4334 10.7749 14.7146C10.4939 14.9957 10.1129 15.1538 9.71541 15.1543ZM26.8222 6.12453L29.818 0.935743C29.859 0.864869 29.8856 0.786618 29.8963 0.705459C29.907 0.6243 29.9017 0.541821 29.8805 0.462733C29.8594 0.383644 29.8229 0.309495 29.7731 0.244517C29.7233 0.17954 29.6612 0.125008 29.5903 0.0840338C29.5194 0.0430599 29.4412 0.016447 29.36 0.00571447C29.2789 -0.00501805 29.1964 0.000340015 29.1173 0.0214828C29.0382 0.0426255 28.9641 0.0791389 28.8991 0.128938C28.8341 0.178737 28.7796 0.240847 28.7386 0.311721L25.7049 5.56605C23.3851 4.50727 20.7797 3.91771 17.9997 3.91771C15.2197 3.91771 12.6146 4.50812 10.2948 5.56605L7.26141 0.311721C7.2205 0.240829 7.16602 0.178689 7.10108 0.128852C7.03615 0.0790141 6.96204 0.042454 6.88297 0.0212588C6.80391 6.35827e-05 6.72145 -0.0053516 6.64029 0.00532242C6.55914 0.0159964 6.48088 0.0425506 6.40999 0.0834688C6.3391 0.124387 6.27696 0.178868 6.22712 0.243801C6.17728 0.308734 6.14072 0.382847 6.11953 0.46191C6.09833 0.540972 6.09292 0.623435 6.10359 0.70459C6.11426 0.785745 6.14082 0.864003 6.18174 0.934896L9.17783 6.12453C4.0334 8.9226 0.514697 14.1306 0 20.2838H36C35.4847 14.1306 31.9663 8.9226 26.8222 6.12453Z" fill="#3DDC84"/>
</svg>
