<svg width="36" height="36" viewBox="0 0 36 36" fill="none" xmlns="http://www.w3.org/2000/svg">
<path fill-rule="evenodd" clip-rule="evenodd" d="M29.3287 24.46C28.6879 25.8369 28.3822 26.4521 27.565 27.665C26.4216 29.3643 24.8019 31.4824 22.8031 31.4971C21.0276 31.5117 20.569 30.3662 18.1557 30.3867C15.7453 30.3984 15.2427 31.5176 13.4643 31.4971C11.4655 31.4824 9.93692 29.5723 8.79052 27.8789C5.58648 23.124 5.24844 17.5518 7.22966 14.5869C8.62885 12.4863 10.8452 11.2529 12.9264 11.2529C15.0457 11.2529 16.3803 12.3867 18.1293 12.3867C19.8342 12.3867 20.8689 11.25 23.3204 11.25C25.1752 11.25 27.1359 12.2344 28.535 13.9307C23.9524 16.377 24.6961 22.752 29.3287 24.46ZM21.7742 9.05273C20.7513 10.3242 18.9935 11.2998 17.2945 11.2471C16.9829 9.62109 17.7824 7.93945 18.7466 6.80566C19.8107 5.56348 21.6331 4.60254 23.1911 4.5C23.4527 6.20215 22.7296 7.87207 21.7742 9.05273Z" fill="#131519" fill-opacity="0.87"/>
</svg>
