<svg width="24" height="24" viewBox="0 0 24 24" fill="none" xmlns="http://www.w3.org/2000/svg">
<path fill-rule="evenodd" clip-rule="evenodd" d="M19.5525 16.3066C19.1253 17.2246 18.9215 17.6348 18.3767 18.4434C17.6144 19.5762 16.5346 20.9883 15.202 20.998C14.0184 21.0078 13.7127 20.2441 12.1038 20.2578C10.4969 20.2656 10.1618 21.0117 8.9762 20.998C7.64364 20.9883 6.62461 19.7148 5.86035 18.5859C3.72432 15.416 3.49896 11.7012 4.81977 9.72461C5.75257 8.32422 7.23015 7.50195 8.61759 7.50195C10.0305 7.50195 10.9202 8.25781 12.0862 8.25781C13.2228 8.25781 13.9126 7.5 15.5469 7.5C16.7835 7.5 18.0906 8.15625 19.0234 9.28711C15.9683 10.918 16.4641 15.168 19.5525 16.3066ZM14.5162 6.03516C13.8342 6.88281 12.6623 7.5332 11.5296 7.49805C11.3219 6.41406 11.8549 5.29297 12.4977 4.53711C13.2071 3.70898 14.4221 3.06836 15.4607 3C15.6351 4.13477 15.153 5.24805 14.5162 6.03516Z" fill="#76787B"/>
</svg>
