<svg width="20" height="20" viewBox="0 0 20 20" fill="none" xmlns="http://www.w3.org/2000/svg">
<path fill-rule="evenodd" clip-rule="evenodd" d="M5.83329 1.66669C5.37306 1.66669 4.99996 2.03978 4.99996 2.50002V3.33335H3.33329C2.41282 3.33335 1.66663 4.07955 1.66663 5.00002V16.6667C1.66663 17.5872 2.41282 18.3334 3.33329 18.3334H16.6666C17.5871 18.3334 18.3333 17.5872 18.3333 16.6667V5.00002C18.3333 4.07955 17.5871 3.33335 16.6666 3.33335H15V2.50002C15 2.03978 14.6269 1.66669 14.1666 1.66669C13.7064 1.66669 13.3333 2.03978 13.3333 2.50002V3.33335H6.66663V2.50002C6.66663 2.03978 6.29353 1.66669 5.83329 1.66669ZM3.33329 6.66669V16.6667H16.6666V6.66669H3.33329ZM13.3333 10H11.6666C10.7462 10 9.99996 10.7462 9.99996 11.6667V13.3334C9.99996 14.2538 10.7462 15 11.6666 15H13.3333C14.2538 15 15 14.2538 15 13.3334V11.6667C15 10.7462 14.2538 10 13.3333 10ZM11.6666 11.6667V13.3334H13.3333V11.6667H11.6666Z" fill="#131519" fill-opacity="0.87"/>
</svg>
