<svg width="24" height="24" viewBox="0 0 24 24" fill="none" xmlns="http://www.w3.org/2000/svg">
<path fill-rule="evenodd" clip-rule="evenodd" d="M7 2C6.44772 2 6 2.44772 6 3V4H4C2.89543 4 2 4.89543 2 6V20C2 21.1046 2.89543 22 4 22H20C21.1046 22 22 21.1046 22 20V6C22 4.89543 21.1046 4 20 4H18V3C18 2.44772 17.5523 2 17 2C16.4477 2 16 2.44772 16 3V4H8V3C8 2.44772 7.55228 2 7 2ZM4 8V20H20V8H4ZM16 12H14C12.8954 12 12 12.8954 12 14V16C12 17.1046 12.8954 18 14 18H16C17.1046 18 18 17.1046 18 16V14C18 12.8954 17.1046 12 16 12ZM14 14V16H16V14H14Z" fill="#0A57EB"/>
</svg>
