<svg width="32" height="32" viewBox="0 0 32 32" fill="none" xmlns="http://www.w3.org/2000/svg">
<path d="M11.0176 16.0008C11.0176 18.7487 13.2531 20.984 16.001 20.984C18.7488 20.984 20.9841 18.7486 20.9841 16.0008C20.9841 13.253 18.7488 11.0175 16.001 11.0175C13.2531 11.0175 11.0176 13.253 11.0176 16.0008Z" fill="#4285F4"/>
<path d="M27.4758 9.42289C27.5146 9.3546 27.5139 9.27075 27.4738 9.20316C26.313 7.24822 24.6611 5.61067 22.6967 4.46759C20.6721 3.28936 18.3567 2.66663 16.001 2.66663C11.9242 2.66663 8.12481 4.49618 5.57703 7.68619C5.52081 7.7565 5.51347 7.85399 5.5585 7.9319L9.31222 14.4334C9.35157 14.5016 9.42414 14.5427 9.50144 14.5427C9.51123 14.5427 9.5212 14.542 9.53108 14.5407C9.61904 14.5287 9.691 14.4647 9.71321 14.3787C10.4534 11.5108 13.039 9.50788 16.001 9.50788C16.1848 9.50788 16.3746 9.51628 16.5654 9.53254C16.5716 9.53315 16.5779 9.53342 16.5841 9.53342H27.2858C27.3644 9.53342 27.437 9.49127 27.4758 9.42289Z" fill="#DB4437"/>
<path d="M17.9714 22.3336C17.9171 22.2634 17.826 22.2332 17.7401 22.257C17.1755 22.4142 16.5904 22.4939 16.001 22.4939C13.4967 22.4939 11.1886 21.0251 10.1207 18.7521C10.1181 18.7465 10.1152 18.7411 10.1121 18.7356L4.75742 9.46123C4.71843 9.39346 4.6462 9.35193 4.56812 9.35193C4.56777 9.35193 4.56733 9.35193 4.56698 9.35193C4.48846 9.35237 4.41615 9.39477 4.37768 9.46315C3.25838 11.4493 2.66669 13.71 2.66669 16.0009C2.66669 19.2147 3.82612 22.319 5.93137 24.742C8.01572 27.1409 10.8853 28.7196 14.0116 29.1874C14.0225 29.1891 14.0333 29.1898 14.0441 29.1898C14.1213 29.1898 14.1938 29.1487 14.2333 29.0805L17.988 22.577C18.0324 22.5 18.0258 22.4038 17.9714 22.3336Z" fill="#0F9D58"/>
<path d="M28.214 10.9919H20.6966C20.6077 10.9919 20.5277 11.0457 20.4942 11.1279C20.4606 11.2101 20.4801 11.3045 20.5435 11.3666C21.8013 12.5997 22.494 14.2454 22.494 16.0008C22.494 17.3297 22.093 18.6086 21.3343 19.6993C21.3308 19.7044 21.3276 19.7095 21.3245 19.7149L15.9605 29.0054C15.9213 29.0734 15.9215 29.1572 15.9612 29.2251C16.0004 29.2922 16.0723 29.3333 16.1498 29.3333C16.1506 29.3333 16.1515 29.3333 16.1523 29.3333C19.6822 29.2939 22.9946 27.8896 25.4792 25.3791C27.9659 22.8666 29.3354 19.536 29.3354 16.0008C29.3354 14.3205 29.0265 12.682 28.4174 11.1307C28.3846 11.0469 28.3039 10.9919 28.214 10.9919Z" fill="#FFCD40"/>
</svg>
