<svg width="24" height="24" viewBox="0 0 24 24" fill="none" xmlns="http://www.w3.org/2000/svg">
<path fill-rule="evenodd" clip-rule="evenodd" d="M12 22C6.47715 22 2 17.5228 2 12C2 11.4477 2.44772 11 3 11C3.55228 11 4 11.4477 4 12C4 16.4183 7.58172 20 12 20C16.4183 20 20 16.4183 20 12C20 7.58172 16.4183 4 12 4C10.0189 4 8.15613 4.721 6.7082 6H8.5C9.05228 6 9.5 6.44772 9.5 7C9.5 7.55228 9.05228 8 8.5 8H4.5C3.94772 8 3.5 7.55228 3.5 7V3C3.5 2.44772 3.94772 2 4.5 2C5.05228 2 5.5 2.44772 5.5 3V4.40041C7.24803 2.9039 9.51846 2 12 2C17.5228 2 22 6.47715 22 12C22 17.5228 17.5228 22 12 22ZM12 8C11.4477 8 11 8.44772 11 9V13C11 13.5523 11.4477 14 12 14H15C15.5523 14 16 13.5523 16 13C16 12.4477 15.5523 12 15 12H13V9C13 8.44772 12.5523 8 12 8Z" fill="#0A57EB"/>
</svg>
