<svg width="24" height="24" viewBox="0 0 24 24" fill="none" xmlns="http://www.w3.org/2000/svg">
<path d="M19.1161 4.00098H4.88308C4.3957 4.00098 4 4.39589 4 4.88405V19.1171C4 19.6053 4.3957 20.0007 4.88308 20.0007H12.5457V13.8047H10.4608V11.3896H12.5457V9.60874C12.5457 7.54251 13.8074 6.4168 15.651 6.4168C16.5349 6.4168 17.2928 6.48292 17.5138 6.51164V8.67139L16.2351 8.67191C15.2326 8.67191 15.0393 9.14849 15.0393 9.84742V11.3889H17.4309L17.1181 13.8036H15.039V19.9999H19.1159C19.6038 19.9999 19.9997 19.604 19.9997 19.1171V4.88353C19.9995 4.39589 19.604 4.00098 19.1161 4.00098Z" fill="#76787B"/>
</svg>
