<svg width="20" height="20" viewBox="0 0 20 20" fill="none" xmlns="http://www.w3.org/2000/svg">
<path fill-rule="evenodd" clip-rule="evenodd" d="M10 18.3334C5.39765 18.3334 1.66669 14.6024 1.66669 10C1.66669 5.39765 5.39765 1.66669 10 1.66669C14.6024 1.66669 18.3334 5.39765 18.3334 10C18.3334 14.6024 14.6024 18.3334 10 18.3334ZM10 16.6667C10.1782 16.6667 10.3548 16.6597 10.5294 16.646C9.59096 15.8422 8.72101 14.8308 7.96203 13.6383C6.81578 13.8135 5.61325 13.8061 4.38425 13.5943C5.56941 15.4422 7.64171 16.6667 10 16.6667ZM9.68477 13.2249C10.5571 14.4756 11.5625 15.4586 12.6235 16.1307C12.8688 16.0255 13.1065 15.9062 13.3356 15.7735C13.3369 15.7549 13.3389 15.7362 13.3416 15.7174C13.5725 14.074 13.5228 12.5879 13.2228 11.2254C12.1819 12.1152 10.9853 12.7943 9.68477 13.2249ZM12.6719 9.46615C11.5871 10.553 10.2609 11.3394 8.78921 11.7554C7.69912 9.70413 6.93653 7.14124 6.72569 4.1915C7.11517 3.97148 7.52899 3.78949 7.9621 3.65059C8.00462 3.68703 8.05522 3.73038 8.10817 3.77574C8.24833 3.8958 8.40496 4.02997 8.47174 4.0876C8.72648 4.30745 8.94225 4.49805 9.15443 4.69219C9.69445 5.18627 10.1696 5.66678 10.6103 6.17756C11.4896 7.19658 12.1852 8.28346 12.6719 9.46615ZM13.8486 8.02687C13.3302 6.98448 12.6661 6.00893 11.8722 5.08878C11.385 4.52413 10.8648 3.99809 10.2795 3.46254C10.2328 3.41981 10.186 3.37733 10.1388 3.33477C12.0882 3.37459 13.8321 4.25113 15.026 5.61988C14.7289 6.49692 14.3311 7.30314 13.8486 8.02687ZM14.5784 9.83917C15.0018 11.1929 15.1996 12.6535 15.144 14.2411C16.0952 13.0886 16.6667 11.6111 16.6667 10C16.6667 9.06252 16.4732 8.17023 16.1239 7.36089C15.7045 8.2695 15.1838 9.09966 14.5784 9.83917ZM5.16712 5.40788C5.46383 7.91913 6.14138 10.1629 7.07823 12.0634C5.95092 12.1558 4.76702 12.043 3.56229 11.6987L3.5568 11.718C3.41104 11.1699 3.33335 10.594 3.33335 10C3.33335 8.22031 4.03073 6.60348 5.16712 5.40788Z" fill="#131519" fill-opacity="0.87"/>
</svg>
