<svg width="24" height="24" viewBox="0 0 24 24" fill="none" xmlns="http://www.w3.org/2000/svg">
<path d="M18.8185 4H5.18231C4.52935 4 4.00012 4.51309 4.00012 5.14636V18.8532C4.00012 19.4865 4.52954 20 5.18231 20H18.8185C19.4713 20 19.9999 19.4861 19.9999 18.8532V5.14636C19.9999 4.51327 19.4713 4 18.8185 4ZM8.85081 17.3931H6.43335V10.1693H8.85081V17.3931ZM7.64232 9.18239H7.62607C6.81539 9.18239 6.28988 8.62798 6.28988 7.93388C6.28988 7.22579 6.83082 6.68641 7.65757 6.68641C8.4844 6.68641 8.99298 7.22565 9.00905 7.93388C9.00905 8.62813 8.48458 9.18239 7.64232 9.18239ZM17.565 17.3931H15.1484V13.5281C15.1484 12.5569 14.7982 11.8943 13.9242 11.8943C13.2557 11.8943 12.8588 12.3413 12.6845 12.773C12.6199 12.9271 12.6039 13.1427 12.6039 13.358V17.3929H10.1877C10.1877 17.3929 10.2193 10.8467 10.1877 10.1692H12.6043V11.1933C12.9251 10.7012 13.4984 9.99921 14.7817 9.99921C16.3724 9.99921 17.565 11.0311 17.565 13.2509V17.3931ZM12.5887 11.2163C12.5928 11.2095 12.5986 11.2013 12.6043 11.1934V11.2163H12.5887Z" fill="white"/>
</svg>
