<svg width="24" height="24" viewBox="0 0 24 24" fill="none" xmlns="http://www.w3.org/2000/svg">
<path fill-rule="evenodd" clip-rule="evenodd" d="M13.4142 9.17158L12 10.5858C11.6095 10.1953 11.6095 9.5621 12 9.17158C12.3905 8.78106 13.0237 8.78106 13.4142 9.17158ZM13.4142 9.17158L16.9498 12.7071C17.7308 13.4882 17.7308 14.7545 16.9498 15.5355L12 10.5858L13.4142 9.17158ZM15.5355 14.1213L16.9498 15.5355L11.2929 21.1924L9.87869 19.7782L15.5355 14.1213ZM4.22183 14.1213L11.2929 21.1924C10.5119 21.9734 9.24552 21.9734 8.46447 21.1924L4.22183 16.9498C3.44079 16.1687 3.44079 14.9024 4.22183 14.1213ZM6.34315 13.4142C6.73368 13.8047 6.73368 14.4379 6.34315 14.8284L5.63605 15.5355L4.22183 14.1213L4.92894 13.4142C5.31946 13.0237 5.95263 13.0237 6.34315 13.4142ZM8.46447 9.87869L12 13.4142L10.5858 14.8284L7.05026 11.2929L8.46447 9.87869ZM15.5355 2.80762L7.05026 11.2929C6.26921 10.5119 6.26921 9.24552 7.05026 8.46447L12.7071 2.80762C13.4882 2.02657 14.7545 2.02657 15.5355 2.80762ZM12 13.4142C12.3905 13.8047 12.3905 14.4379 12 14.8284C11.6095 15.219 10.9763 15.219 10.5858 14.8284L12 13.4142ZM15.5355 2.80762L19.7782 7.05026L18.364 8.46447L14.1213 4.22183L15.5355 2.80762ZM19.7782 7.05026C20.5592 7.83131 20.5592 9.09764 19.7782 9.87869L19.0711 10.5858C18.6806 10.9763 18.0474 10.9763 17.6569 10.5858C17.2663 10.1953 17.2663 9.5621 17.6569 9.17158L19.7782 7.05026Z" fill="#0A57EB"/>
</svg>
