<svg width="32" height="32" viewBox="0 0 32 32" fill="none" xmlns="http://www.w3.org/2000/svg">
<path d="M17.6123 10.6163V10.3526L16.7927 10.4089C16.5606 10.4235 16.3863 10.4729 16.2691 10.5561C16.1519 10.6402 16.0933 10.7566 16.0933 10.9054C16.0933 11.0504 16.1511 11.1661 16.2676 11.2517C16.3832 11.338 16.539 11.3804 16.7333 11.3804C16.8574 11.3804 16.9739 11.3612 17.0811 11.3234C17.1882 11.2856 17.2823 11.2324 17.361 11.1645C17.4396 11.0974 17.5013 11.0173 17.5453 10.924C17.59 10.8307 17.6123 10.7281 17.6123 10.6163ZM16 0C7.07161 0 0 7.07161 0 16C0 24.9292 7.07161 32 16 32C24.9284 32 32 24.9292 32 16C32 7.07161 24.9292 0 16 0ZM19.1059 9.48357C19.1815 9.27152 19.2879 9.08954 19.4259 8.93841C19.564 8.78728 19.7297 8.67084 19.924 8.58911C20.1184 8.50737 20.335 8.46651 20.5733 8.46651C20.7884 8.46651 20.9827 8.49889 21.1555 8.56289C21.329 8.62689 21.477 8.71325 21.6012 8.82198C21.7253 8.9307 21.824 9.05716 21.8965 9.20212C21.969 9.34708 22.0121 9.50053 22.0268 9.66169H21.3845C21.3683 9.57301 21.339 9.48973 21.2973 9.4134C21.2557 9.33706 21.201 9.27075 21.1331 9.21446C21.0645 9.15817 20.9843 9.11422 20.8925 9.0826C20.8 9.05022 20.6967 9.03479 20.5802 9.03479C20.4438 9.03479 20.3196 9.06255 20.2093 9.1173C20.0983 9.17205 20.0035 9.24993 19.9248 9.35017C19.8462 9.45041 19.7853 9.57301 19.7421 9.71643C19.6981 9.86063 19.6765 10.0202 19.6765 10.196C19.6765 10.378 19.6981 10.5415 19.7421 10.6849C19.7853 10.8291 19.8469 10.9502 19.9271 11.0496C20.0066 11.1491 20.1029 11.2254 20.2147 11.2779C20.3266 11.3303 20.4499 11.3573 20.5841 11.3573C20.8039 11.3573 20.9827 11.3056 21.1215 11.2023C21.2603 11.099 21.3498 10.9479 21.3914 10.7489H22.0345C22.016 10.9247 21.9674 11.0851 21.8888 11.2301C21.8101 11.375 21.7083 11.4984 21.5834 11.601C21.4577 11.7035 21.3105 11.7829 21.1408 11.8385C20.9712 11.894 20.7846 11.9225 20.5818 11.9225C20.3412 11.9225 20.1245 11.8824 19.9294 11.803C19.7351 11.7236 19.5678 11.6087 19.429 11.4599C19.2902 11.311 19.183 11.1298 19.1075 10.9162C19.0319 10.7027 18.9941 10.4628 18.9941 10.1953C18.9926 9.93388 19.0304 9.69639 19.1059 9.48357ZM9.96626 8.51046H10.6093V9.08183H10.6217C10.661 8.98699 10.7127 8.9014 10.7759 8.82737C10.8391 8.75258 10.9116 8.68935 10.9949 8.63614C11.0774 8.58294 11.1692 8.54284 11.2679 8.51508C11.3673 8.48732 11.4722 8.47345 11.5817 8.47345C11.8176 8.47345 12.0173 8.52973 12.1793 8.64231C12.342 8.75489 12.4576 8.91682 12.5255 9.1281H12.5417C12.5849 9.02631 12.6419 8.93532 12.7121 8.85513C12.7823 8.77494 12.8632 8.70554 12.9542 8.64848C13.0452 8.59142 13.1454 8.54824 13.2542 8.51817C13.3629 8.4881 13.477 8.47345 13.5973 8.47345C13.7631 8.47345 13.9134 8.49966 14.0492 8.55287C14.1849 8.60607 14.3005 8.6801 14.3969 8.77648C14.4933 8.87287 14.5673 8.99007 14.619 9.12733C14.6706 9.26458 14.6969 9.41725 14.6969 9.58535V11.884H14.026V9.74651C14.026 9.5252 13.969 9.35325 13.8548 9.23219C13.7415 9.11113 13.5788 9.05022 13.3675 9.05022C13.2642 9.05022 13.1693 9.06872 13.083 9.10496C12.9974 9.1412 12.9226 9.1921 12.8609 9.25764C12.7985 9.32241 12.7499 9.40106 12.7152 9.49205C12.6797 9.58304 12.662 9.68251 12.662 9.79046V11.884H12.0004V9.69099C12.0004 9.59383 11.985 9.50593 11.9549 9.42728C11.9248 9.34863 11.8824 9.28154 11.8261 9.22525C11.7706 9.16896 11.702 9.12655 11.6226 9.09648C11.5424 9.06641 11.4529 9.05099 11.3534 9.05099C11.2501 9.05099 11.1545 9.07026 11.0658 9.10882C10.9779 9.14737 10.9024 9.20058 10.8391 9.26843C10.7759 9.33706 10.7266 9.41725 10.6919 9.51055C10.6579 9.60308 10.6024 9.70487 10.6024 9.81436V11.8832H9.96626V8.51046ZM11.4259 24.6562C8.47653 24.6562 6.6267 22.6066 6.6267 19.3357C6.6267 16.0648 8.47653 14.0083 11.4259 14.0083C14.3753 14.0083 16.2182 16.0648 16.2182 19.3357C16.2182 22.6059 14.3753 24.6562 11.4259 24.6562ZM16.8867 11.8755C16.778 11.9032 16.667 11.9171 16.5529 11.9171C16.3848 11.9171 16.2313 11.8932 16.0918 11.8454C15.9514 11.7976 15.8319 11.7305 15.7317 11.6434C15.6314 11.5562 15.5528 11.4514 15.4973 11.328C15.441 11.2046 15.4132 11.0674 15.4132 10.9162C15.4132 10.6201 15.5235 10.3888 15.744 10.2223C15.9645 10.0557 16.2838 9.95855 16.7025 9.93157L17.6123 9.87913V9.61851C17.6123 9.42419 17.5506 9.27537 17.4273 9.17436C17.3039 9.07335 17.1296 9.02246 16.9037 9.02246C16.8127 9.02246 16.7271 9.03402 16.6485 9.05639C16.5698 9.07952 16.5004 9.1119 16.4403 9.15431C16.3801 9.19672 16.33 9.24761 16.2915 9.30699C16.2521 9.36559 16.2252 9.4319 16.2105 9.50438H15.5798C15.5836 9.35557 15.6206 9.21754 15.69 9.09108C15.7594 8.96463 15.8535 8.85513 15.973 8.76183C16.0925 8.66853 16.2321 8.59605 16.394 8.54439C16.556 8.49272 16.7318 8.46651 16.9222 8.46651C17.1273 8.46651 17.3132 8.49195 17.4797 8.54439C17.6463 8.59682 17.7889 8.67007 17.9069 8.76646C18.0249 8.86284 18.1159 8.97851 18.1799 9.11422C18.2439 9.24993 18.2762 9.40183 18.2762 9.56916V11.8832H17.6339V11.3211H17.6177C17.5699 11.412 17.5098 11.4946 17.4365 11.5678C17.3625 11.6411 17.28 11.7043 17.1882 11.756C17.0957 11.8076 16.9955 11.8477 16.8867 11.8755ZM21.13 24.6562C18.8808 24.6562 17.3517 23.478 17.2453 21.6281H18.7096C18.8237 22.6853 19.8454 23.3854 21.2449 23.3854C22.5874 23.3854 23.552 22.6853 23.552 21.7284C23.552 20.9002 22.966 20.3998 21.6096 20.0574L20.288 19.729C18.388 19.2578 17.5244 18.3934 17.5244 16.9723C17.5244 15.2227 19.0527 14.0083 21.231 14.0083C23.3592 14.0083 24.8443 15.2297 24.9014 16.9862H23.4518C23.3515 15.9291 22.4879 15.279 21.2017 15.279C19.9233 15.279 19.0381 15.936 19.0381 16.886C19.0381 17.6355 19.5948 18.0788 20.9519 18.4212L22.0661 18.6996C24.1874 19.2139 25.0587 20.0497 25.0587 21.5495C25.0579 23.4633 23.5443 24.6562 21.13 24.6562ZM11.4259 15.3214C9.40491 15.3214 8.14111 16.8713 8.14111 19.3349C8.14111 21.7916 9.40491 23.3415 11.4259 23.3415C13.44 23.3415 14.7107 21.7916 14.7107 19.3349C14.7115 16.8713 13.44 15.3214 11.4259 15.3214Z" fill="#131519" fill-opacity="0.87"/>
</svg>
