<svg width="24" height="24" viewBox="0 0 24 24" fill="none" xmlns="http://www.w3.org/2000/svg">
<path fill-rule="evenodd" clip-rule="evenodd" d="M4 4C2.89543 4 2 4.89543 2 6V7C2.68013 7 3.34806 7.05223 4 7.1529V6H20V18H14.8471C14.9478 18.6519 15 19.3199 15 20H20C21.1046 20 22 19.1046 22 18V6C22 4.89543 21.1046 4 20 4H4ZM2 9C8.07513 9 13 13.9249 13 20H11C11 15.0294 6.97056 11 2 11V9ZM2 13C5.86599 13 9 16.134 9 20H7C7 17.2386 4.76142 15 2 15V13ZM2 17C3.65685 17 5 18.3431 5 20H2V17Z" fill="#0A57EB"/>
</svg>
