<svg width="24" height="24" viewBox="0 0 24 24" fill="none" xmlns="http://www.w3.org/2000/svg">
<path fill-rule="evenodd" clip-rule="evenodd" d="M9.39576 3.1182C8.09063 1.82482 3.32028 1.69684 2.2819 3.45231C0.776175 5.99786 3.85442 13.0225 7.58567 16.6616C11.3034 20.2159 18.4311 23.0471 20.9226 21.4534C22.6408 20.3544 22.3464 15.5914 21.0082 14.3322C20.1235 13.4997 16.3544 12.8972 15.26 13.1359C14.9215 13.2098 14.467 13.6988 14.1012 14.0924C14.0241 14.1755 13.9508 14.2543 13.8835 14.324C13.5051 14.7158 12.1734 13.446 11.3567 12.6577C10.5898 11.9167 9.27424 10.6301 9.65259 10.2383C9.71995 10.1686 9.79616 10.0926 9.87647 10.0126C10.2571 9.63331 10.7299 9.16205 10.7919 8.82113C10.9923 7.71915 10.2587 3.97333 9.39576 3.1182ZM19.8449 19.7686C19.3511 20.0844 17.5935 19.9263 15.4121 19.1138C13.0207 18.223 10.5701 16.748 8.93278 15.1822C7.34576 13.6341 5.78615 11.2367 4.81243 8.87778C3.92423 6.72606 3.70488 4.97504 4.0033 4.47053C4.2546 4.04569 7.43471 3.99053 7.98795 4.53879C8.2341 4.78273 8.81195 7.26372 8.83661 8.21405C8.80672 8.24691 8.77267 8.28332 8.73457 8.32306C8.66721 8.3933 8.60265 8.45845 8.47837 8.58232C8.33115 8.72906 8.28504 8.77537 8.21391 8.84903C7.42723 9.66366 7.44355 10.6225 7.8197 11.4805C7.9837 11.8546 8.21771 12.2037 8.52472 12.5804C8.90267 13.0443 9.2992 13.4508 9.96705 14.096L10.0175 14.1447C10.6853 14.7893 11.1054 15.1714 11.5822 15.533C11.9694 15.8266 12.3265 16.0483 12.706 16.1992C13.5766 16.5451 14.5355 16.528 15.3221 15.7134C15.3933 15.6397 15.4379 15.592 15.5794 15.4398C15.6989 15.3112 15.7618 15.2444 15.8296 15.1747C15.868 15.1352 15.9032 15.0999 15.935 15.0689C16.8856 15.0604 19.3853 15.5513 19.6376 15.7888C20.2049 16.3225 20.2607 19.5026 19.8449 19.7686Z" fill="#131519" fill-opacity="0.87"/>
</svg>
