<svg width="24" height="24" viewBox="0 0 24 24" fill="none" xmlns="http://www.w3.org/2000/svg">
<path fill-rule="evenodd" clip-rule="evenodd" d="M2.99999 6C6.98369 5.43301 9.02154 4.99756 12 2C14.9841 5.00244 17.0163 5.43301 21 6C22.6716 6.23792 19.5367 22 12 22C4.53393 22 1.32838 6.23792 2.99999 6ZM4.63675 8.36108C4.81163 9.81222 5.27752 11.6472 5.94027 13.3718C7.52233 17.4888 9.76727 20 12 20C14.2648 20 16.5118 17.4928 18.0848 13.3754C18.7429 11.653 19.2027 9.81954 19.3723 8.36824C19.3971 8.15658 19.4145 7.96011 19.4253 7.78268C15.9882 7.21549 14.0909 6.50001 11.9999 4.73139C9.91139 6.49687 8.01123 7.21449 4.582 7.7814C4.59345 7.95727 4.61152 8.15175 4.63675 8.36108ZM7.89531 11.6526C8.28583 11.262 8.919 11.262 9.30952 11.6526L10.614 12.9571L14.8035 8.76763C15.194 8.37711 15.8271 8.37711 16.2177 8.76763C16.6082 9.15815 16.6082 9.79132 16.2177 10.1818L11.3211 15.0784C10.9306 15.4689 10.2974 15.4689 9.90691 15.0784L7.89531 13.0668C7.50479 12.6763 7.50479 12.0431 7.89531 11.6526Z" fill="#131519" fill-opacity="0.87"/>
</svg>
