<svg width="24" height="24" viewBox="0 0 24 24" fill="none" xmlns="http://www.w3.org/2000/svg">
<path d="M20 7.03941C19.4111 7.30035 18.7792 7.47732 18.1153 7.55633C18.7932 7.15039 19.3121 6.50652 19.558 5.74166C18.9222 6.11758 18.2203 6.39055 17.4724 6.53852C16.8735 5.89964 16.0217 5.50171 15.0769 5.50171C13.2642 5.50171 11.7945 6.97144 11.7945 8.7831C11.7945 9.04004 11.8235 9.291 11.8795 9.53097C9.152 9.39398 6.73346 8.08723 5.11477 6.10158C4.83182 6.5855 4.67085 7.14937 4.67085 7.75128C4.67085 8.89008 5.25075 9.89489 6.13059 10.4828C5.59268 10.4648 5.08677 10.3168 4.64387 10.0708V10.1118C4.64387 11.7015 5.77566 13.0283 7.27637 13.3302C7.00141 13.4042 6.71148 13.4452 6.41153 13.4452C6.19958 13.4452 5.99461 13.4242 5.79365 13.3842C6.21156 14.689 7.42335 15.6378 8.85908 15.6638C7.73629 16.5437 6.32055 17.0666 4.78285 17.0666C4.51791 17.0666 4.25694 17.0506 4 17.0216C5.45273 17.9544 7.17741 18.4983 9.03106 18.4983C15.0689 18.4983 18.3693 13.4972 18.3693 9.16004L18.3583 8.73513C19.0032 8.27518 19.561 7.69729 20 7.03941Z" fill="white"/>
</svg>
