<svg width="24" height="24" viewBox="0 0 24 24" fill="none" xmlns="http://www.w3.org/2000/svg">
<path d="M20 7.03941C19.4111 7.30035 18.7793 7.47732 18.1154 7.55633C18.7933 7.15039 19.3122 6.50652 19.5581 5.74166C18.9222 6.11758 18.2203 6.39055 17.4725 6.53852C16.8736 5.89964 16.0218 5.50171 15.0769 5.50171C13.2643 5.50171 11.7945 6.97144 11.7945 8.7831C11.7945 9.04004 11.8235 9.291 11.8795 9.53097C9.15206 9.39398 6.73353 8.08723 5.11483 6.10158C4.83188 6.5855 4.67091 7.14937 4.67091 7.75128C4.67091 8.89008 5.25081 9.89489 6.13065 10.4828C5.59274 10.4648 5.08683 10.3168 4.64393 10.0708V10.1118C4.64393 11.7015 5.77572 13.0283 7.27643 13.3302C7.00147 13.4042 6.71154 13.4452 6.41159 13.4452C6.19964 13.4452 5.99468 13.4242 5.79371 13.3842C6.21162 14.689 7.42341 15.6378 8.85915 15.6638C7.73635 16.5437 6.32061 17.0666 4.78291 17.0666C4.51797 17.0666 4.257 17.0506 4.00006 17.0216C5.45279 17.9544 7.17747 18.4983 9.03112 18.4983C15.069 18.4983 18.3694 13.4972 18.3694 9.16004L18.3584 8.73513C19.0032 8.27518 19.5611 7.69729 20 7.03941Z" fill="#76787B"/>
</svg>
