<svg width="24" height="24" viewBox="0 0 24 24" fill="none" xmlns="http://www.w3.org/2000/svg">
<path fill-rule="evenodd" clip-rule="evenodd" d="M8 7C8 9.20914 9.79086 11 12 11C14.2091 11 16 9.20914 16 7C16 4.79086 14.2091 3 12 3C9.79086 3 8 4.79086 8 7ZM14 7.00001C14 8.10458 13.1046 9.00001 12 9.00001C10.8954 9.00001 10 8.10458 10 7.00001C10 5.89544 10.8954 5.00001 12 5.00001C13.1046 5.00001 14 5.89544 14 7.00001ZM17.9931 19C17.9962 18.9414 18 18.8592 18 18.75C18 15.1737 16.6977 14 12 14C7.30232 14 6 15.1737 6 18.75C6 18.8592 6.00376 18.9414 6.00693 19H17.9931ZM12 12C5.98633 12 4 14.25 4 18.75C4 20.25 4.66667 21 6 21H18C19.3333 21 20 20.25 20 18.75C20 14.25 18.0137 12 12 12Z" fill="#0A57EB"/>
</svg>
