<svg width="135" height="32" viewBox="0 0 135 32" fill="none" xmlns="http://www.w3.org/2000/svg">
<path d="M52.4631 23.1989C55.6094 23.1989 57.8608 21.4659 57.8679 19.1009C57.8608 17.2827 56.5185 15.7628 54.8281 15.4787V15.3793C56.2983 15.0526 57.321 13.7315 57.3281 12.1548C57.321 9.91761 55.2614 8.25568 52.4631 8.25568C49.6435 8.25568 47.5838 9.91051 47.5909 12.1548C47.5838 13.7315 48.5923 15.0526 50.0909 15.3793V15.4787C48.3722 15.7628 47.044 17.2827 47.0511 19.1009C47.044 21.4659 49.2884 23.1989 52.4631 23.1989ZM52.4631 21.1676C50.8153 21.1676 49.75 20.2585 49.7642 18.9162C49.75 17.5241 50.8935 16.5369 52.4631 16.5369C54.0114 16.5369 55.1477 17.5312 55.1619 18.9162C55.1477 20.2585 54.0895 21.1676 52.4631 21.1676ZM52.4631 14.5412C51.1136 14.5412 50.1477 13.6676 50.1619 12.4034C50.1477 11.1534 51.0852 10.3153 52.4631 10.3153C53.8196 10.3153 54.75 11.1534 54.7642 12.4034C54.75 13.6747 53.7912 14.5412 52.4631 14.5412ZM61.9535 12.0909H59.2262L62.4648 17.5455L59.141 23H61.8682L64.1552 19.0724L66.4634 23H69.1694L65.8242 17.5455L69.1125 12.0909H66.3924L64.1552 16.1179L61.9535 12.0909ZM75.8632 23.1989C79.0095 23.1989 81.261 21.4659 81.2681 19.1009C81.261 17.2827 79.9186 15.7628 78.2283 15.4787V15.3793C79.6985 15.0526 80.7212 13.7315 80.7283 12.1548C80.7212 9.91761 78.6615 8.25568 75.8632 8.25568C73.0436 8.25568 70.984 9.91051 70.9911 12.1548C70.984 13.7315 71.9925 15.0526 73.4911 15.3793V15.4787C71.7723 15.7628 70.4442 17.2827 70.4513 19.1009C70.4442 21.4659 72.6885 23.1989 75.8632 23.1989ZM75.8632 21.1676C74.2155 21.1676 73.1502 20.2585 73.1644 18.9162C73.1502 17.5241 74.2936 16.5369 75.8632 16.5369C77.4115 16.5369 78.5479 17.5312 78.5621 18.9162C78.5479 20.2585 77.4896 21.1676 75.8632 21.1676ZM75.8632 14.5412C74.5138 14.5412 73.5479 13.6676 73.5621 12.4034C73.5479 11.1534 74.4854 10.3153 75.8632 10.3153C77.2198 10.3153 78.1502 11.1534 78.1644 12.4034C78.1502 13.6747 77.1913 14.5412 75.8632 14.5412ZM87.9459 8.45455V23H90.4743V12.9858H90.6093L94.6291 22.9574H96.5184L100.538 13.0071H100.673V23H103.202V8.45455H99.9772L95.659 18.9943H95.4885L91.1703 8.45455H87.9459ZM110.407 23.2131C112.949 23.2131 114.697 21.9702 115.151 20.0739L112.751 19.804C112.403 20.7273 111.55 21.2102 110.442 21.2102C108.78 21.2102 107.68 20.1165 107.658 18.2486H115.258V17.4602C115.258 13.6321 112.957 11.9489 110.272 11.9489C107.147 11.9489 105.109 14.2429 105.109 17.6094C105.109 21.0327 107.118 23.2131 110.407 23.2131ZM107.665 16.5156C107.743 15.1236 108.773 13.9517 110.307 13.9517C111.785 13.9517 112.779 15.0312 112.793 16.5156H107.665ZM121.882 23.2131C124.425 23.2131 126.172 21.9702 126.627 20.0739L124.226 19.804C123.878 20.7273 123.026 21.2102 121.918 21.2102C120.256 21.2102 119.155 20.1165 119.134 18.2486H126.733V17.4602C126.733 13.6321 124.432 11.9489 121.747 11.9489C118.622 11.9489 116.584 14.2429 116.584 17.6094C116.584 21.0327 118.594 23.2131 121.882 23.2131ZM119.141 16.5156C119.219 15.1236 120.249 13.9517 121.783 13.9517C123.26 13.9517 124.254 15.0312 124.269 16.5156H119.141ZM133.976 12.0909H131.824V9.47727H129.253V12.0909H127.704V14.0795H129.253V20.1449C129.238 22.1974 130.73 23.206 132.662 23.1491C133.393 23.1278 133.898 22.9858 134.175 22.8935L133.741 20.8835C133.599 20.919 133.308 20.983 132.988 20.983C132.342 20.983 131.824 20.7557 131.824 19.7188V14.0795H133.976V12.0909Z" fill="white"/>
<path d="M2.58036 29.4019L7.16371 29.4019C7.67522 29.4019 8.152 29.1432 8.43077 28.7143L14.5343 19.3242L12.3408 15.9497C11.4469 14.5744 9.43357 14.5744 8.53968 15.9497L1.3133 27.0672C0.659839 28.0725 1.38131 29.4019 2.58036 29.4019Z" fill="white"/>
<path d="M12.9698 29.4021L17.5532 29.4021C18.0647 29.4021 18.5415 29.1433 18.8202 28.7145L24.9238 19.3244L22.7303 15.9498C21.8364 14.5746 19.8231 14.5746 18.9292 15.9498L11.7028 27.0673C11.0493 28.0726 11.7708 29.4021 12.9698 29.4021Z" fill="white"/>
<path d="M30.3657 29.4571H25.3803C24.1144 29.4571 22.9319 28.8261 22.2271 27.7745C22.0689 27.5385 22.0663 27.231 22.2204 26.9922L25.5209 21.8795C25.7436 21.5346 26.2477 21.5335 26.4718 21.8775L30.8405 28.581C31.0861 28.9579 30.8156 29.4571 30.3657 29.4571Z" fill="white"/>
<ellipse cx="10.3524" cy="7.29406" rx="4.09407" ry="4.09406" fill="white"/>
<ellipse cx="20.4265" cy="7.29406" rx="4.09406" ry="4.09406" fill="white"/>
</svg>
