<svg width="70" height="32" viewBox="0 0 70 32" fill="none" xmlns="http://www.w3.org/2000/svg">
<path fill-rule="evenodd" clip-rule="evenodd" d="M19.4924 16L19.5018 15.9885C19.8388 15.573 22.5586 12.2196 22.5586 8.93694C22.5586 3.17117 17.8133 0 11.9729 0C4.67234 0.0720721 1.46011 4.46847 1.46011 8.93694C1.46011 11.6036 2.62819 13.4054 4.30731 14.8468C3.35824 15.5676 0 18.3784 0 22.4144C0 27.3153 4.01529 32 11.6078 32C19.3464 32 23.2157 27.3153 23.2157 22.5586C23.2157 19.4595 21.6096 17.4414 19.4924 16ZM44.113 11.1628H36.7319L35.0286 14.4204C34.8156 14.9272 34.3898 15.5063 34.3898 15.5063H34.3188C34.3188 15.5063 33.964 14.9272 33.6801 14.4204L32.0477 11.1628H24.6667L30.4864 20.4289L24.7376 29.7674H31.9768L33.964 25.9307C34.1769 25.5687 34.4608 24.9172 34.4608 24.9172H34.5317C34.5317 24.9172 34.8156 25.5687 35.0286 25.9307L37.0158 29.7674H44.2549L38.5062 20.4289L44.113 11.1628ZM14.5098 9.5784C14.5098 7.84996 13.3352 6.69768 11.4006 6.69768C9.53502 6.69768 8.70589 7.77795 8.70589 9.14629C8.70589 11.1628 10.8478 12.2431 13.4734 13.3954C13.7498 12.8912 14.5098 11.4509 14.5098 9.5784ZM65.9238 16.0724L65.9331 16.0608C66.2701 15.6435 68.99 12.275 68.99 8.97738C68.99 3.18552 64.2447 2.88059e-06 58.4042 2.88059e-06C51.1037 2.88059e-06 47.8915 4.41629 47.8915 8.90498C47.8915 11.5837 49.0596 13.3937 50.7387 14.8416C49.7896 15.5656 46.4314 18.3891 46.4314 22.371C46.4314 27.2941 50.4467 32 58.0392 32C65.7778 32 69.6471 27.2941 69.6471 22.5158C69.6471 19.5475 68.0409 17.5204 65.9238 16.0724ZM7.98042 21.6544C7.98042 23.6972 9.60044 25.3023 11.6431 25.3023C13.897 25.3023 15.2353 24.2079 15.2353 22.0921C15.2353 20.4779 12.9607 19.4217 10.2877 18.1806C10.0611 18.0753 9.83162 17.9688 9.60044 17.8605C8.89608 18.663 7.98042 19.9763 7.98042 21.6544ZM58.0745 25.3023C56.0318 25.3023 54.4118 23.6972 54.4118 21.6544C54.4118 19.9763 55.3275 18.663 56.0318 17.8605C56.263 17.9688 56.4924 18.0753 56.719 18.1806C59.3921 19.4217 61.6667 20.4779 61.6667 22.0921C61.6667 24.2079 60.3284 25.3023 58.0745 25.3023ZM60.9412 9.5784C60.9412 7.84996 59.7666 6.69768 57.8319 6.69768C55.9664 6.69768 55.1373 7.77795 55.1373 9.14629C55.1373 11.1628 57.2792 12.2431 59.9048 13.3954C60.1811 12.8912 60.9412 11.4509 60.9412 9.5784Z" fill="white"/>
</svg>
